<?xml version="1.0" encoding="utf-8"?>
<!-- Generator: Adobe Illustrator 16.0.3, SVG Export Plug-In . SVG Version: 6.00 Build 0)  -->
<!DOCTYPE svg PUBLIC "-//W3C//DTD SVG 1.1//EN" "http://www.w3.org/Graphics/SVG/1.1/DTD/svg11.dtd">
<svg version="1.1" id="Capa_1" xmlns="http://www.w3.org/2000/svg" xmlns:xlink="http://www.w3.org/1999/xlink" x="0px" y="0px"
	 width="1080px" height="1080px" viewBox="0 0 1080 1080" enable-background="new 0 0 1080 1080" xml:space="preserve">
<path d="M516.704,297.217c-148.573,0-269.448,117.731-269.448,262.444s120.875,262.447,269.448,262.447
	c148.576,0,269.446-117.734,269.446-262.447S665.28,297.217,516.704,297.217z M516.704,814.235
	c-144.119,0-261.368-114.2-261.368-254.574s117.249-254.577,261.368-254.577c144.117,0,261.368,114.203,261.368,254.577
	S660.821,814.235,516.704,814.235z"/>
<path d="M534.211,192.092c0-10.29-7.839-18.631-17.507-18.631c-9.669,0-17.507,8.341-17.507,18.631
	c0,10.288,17.507,74.994,17.507,74.994S534.211,202.379,534.211,192.092z"/>
<path d="M516.704,945.861c9.667,0,17.507-8.337,17.507-18.629c0-10.291-17.507-74.996-17.507-74.996s-17.507,64.705-17.507,74.996
	C499.197,937.524,507.035,945.861,516.704,945.861"/>
<path d="M894.078,542.608c-10.561,0-76.992,17.053-76.992,17.053s66.432,17.054,76.992,17.054c10.563,0,19.126-7.633,19.126-17.054
	C913.204,550.243,904.642,542.608,894.078,542.608z"/>
<path d="M139.327,542.608c-10.564,0-19.125,7.635-19.125,17.053c0,9.421,8.561,17.054,19.125,17.054
	c10.564,0,76.996-17.054,76.996-17.054S149.891,542.608,139.327,542.608z"/>
<path d="M474.239,240.145c0,0,19.185,4.096,33.942,47.805c0,0-9.465-62.931-39.195-71.635
	C441.359,208.23,453.747,239.541,474.239,240.145z"/>
<path d="M317.42,269.269c-17.127,1.259-51.749,36.287-51.749,36.287c18.727-11.942,36.49-13.398,50.042-16.006
	C329.265,286.942,334.548,268.01,317.42,269.269z"/>
<path d="M331.303,291.692c-1.871,2.285-4.152,4.454-6.852,6.616c-2.697,2.163-5.767,4.291-9.043,6.694
	c-3.228,2.424-6.777,5.077-9.888,8.965c-1.519,1.931-2.874,4.146-3.844,6.634c-0.953,2.491-1.489,5.235-1.522,8.007
	c-0.025,0.697,0.031,1.385,0.059,2.083c0.07,0.706,0.174,1.501,0.277,2.174l0.161,0.874l0.082,0.437l0.084,0.367l0.075,0.264
	l0.613,2.109c0.997,2.782,2.556,5.429,4.6,7.723c4.075,4.583,10.067,7.79,16.727,8.394c1.66,0.144,3.349,0.153,5.038-0.049
	c1.644-0.161,3.939-0.705,4.95-1.065c3.292-1.081,6.002-2.497,8.707-4.286c10.629-7.222,16.914-18.549,21.219-29.33
	c4.418-10.986,7.43-22.252,10.857-33.04c0.595-1.925,1.222-3.834,1.864-5.729c0.549,6.209,3.085,9.894,3.085,9.894
	c2.064,4.057,4.362,5.29,6.173,5.495c-4.227-14.134-2.806-19.86-2.806-19.86c0.111,7.213,6.06,19.175,6.06,19.175
	c2.66,4.688,6.175,5.685,8.736,5.665c-6.604-13.5-3.574-21.342-3.574-21.342c0.111,12.242,6.959,20.705,6.959,20.705
	c9.649,12.242,18.628,2.842,18.628,2.842c-23.864-14.396-22.588-37.941-16.592-53.655c2.746-6.36,10.274-17.651,28.432-14.313
	c2.141,0.438,4.259,1.02,6.332,1.716c4.452,1.486,8.7,3.58,12.732,5.664c4.111,2.18,7.971,4.435,11.599,6.76
	c7.261,4.628,13.618,9.36,19.051,13.819c5.38,4.511,9.91,8.673,13.486,12.261c3.578,3.592,6.298,6.516,8.121,8.543
	c1.796,2.059,2.752,3.155,2.752,3.155s-0.774-1.227-2.223-3.529c-1.52-2.26-3.663-5.664-6.825-9.688
	c-3.131-4.047-7.096-8.879-12.136-14.014c-5.042-5.119-11.022-10.699-18.188-16.05c-3.551-2.709-7.39-5.398-11.454-8.001
	c-4.164-2.651-8.652-5.086-13.667-7.143c-5.004-2.014-10.551-3.637-16.558-4.029c-6.017-0.453-12.301,0.526-18.096,2.651
	c-11.615,4.242-21.673,12.599-28.572,22.804c-7.006,10.167-11.368,21.559-14.989,32.728c-3.5,11.164-6.257,22.229-10.223,32.355
	c-1.005,2.552-2.021,4.969-3.204,7.401c-1.12,2.274-2.332,4.624-3.676,6.747c-2.672,4.295-5.885,8.041-9.604,10.728
	c-3.82,2.74-7.692,4.285-11.66,4.107c-3.998-0.071-7.94-1.84-10.668-4.534c-1.372-1.349-2.455-2.925-3.211-4.628l-0.476-1.309
	l-0.062-0.164c-0.039-0.148,0.016,0.11,0,0.042l-0.027-0.108l-0.11-0.431l-0.22-0.862l-0.252-1.312
	c-0.042-0.472-0.147-0.945-0.165-1.409c-0.2-2.249,0.172-4.436,0.915-6.522c11.195-19.389,25.249-1.793,25.249-1.793
	s8.547-8.089,9.222-26.89c0.672-18.802-9.222-23.127-9.222-23.127s0.174,0.316,0.515,0.931c0.182,0.296,0.366,0.688,0.545,1.166
	c0.211,0.464,0.409,1.02,0.565,1.665c0.771,2.525,0.771,6.521-0.921,11.035C334.407,287.11,333.033,289.514,331.303,291.692z"/>
<path d="M411.922,279.375l0.248,0.272c0.202,0.21,0.231,0.286,0.638,0.659c0.326,0.303,0.688,0.632,1.01,0.895l0.913,0.699
	c2.49,1.776,5.299,2.859,8.035,3.363c2.76,0.52,5.444,0.63,8.171,0.299c2.483-0.281,4.904-0.854,7.068-1.442
	c2-0.617,4.002-1.238,5.996-1.855l1.355-0.398l0.167-0.047l0.084-0.024l0.041-0.013c-0.413,0.104-0.087,0.022-0.168,0.042
	l0.375-0.098l0.745-0.194c0.951-0.232,2.088-0.584,2.874-0.714l2.473-0.486c0.89-0.138,1.775-0.272,2.656-0.41
	c1.773-0.199,3.539-0.394,5.292-0.458c3.503-0.179,6.947-0.093,10.214,0.266c3.279,0.292,6.387,0.843,9.245,1.507
	c1.439,0.315,2.813,0.668,4.104,1.064c1.328,0.334,2.532,0.781,3.697,1.166c2.307,0.81,4.365,1.561,5.991,2.322
	c1.653,0.728,2.97,1.331,3.844,1.786c0.908,0.427,1.392,0.655,1.392,0.655s-0.309-0.427-0.888-1.227
	c-0.602-0.781-1.444-1.999-2.764-3.317c-1.26-1.388-2.913-2.985-4.999-4.622c-2.075-1.654-4.588-3.351-7.526-4.905
	c-2.934-1.561-6.287-3.005-10.008-4.093c-3.705-1.132-7.774-1.928-12.058-2.231c-2.139-0.232-4.335-0.181-6.557-0.139
	c-1.112,0.066-2.232,0.13-3.358,0.197c-1.178,0.166-2.363,0.332-3.553,0.498c-1.235,0.17-2.071,0.396-3.133,0.593l-0.756,0.151
	l-0.379,0.076l-0.622,0.157l-1.624,0.442c-1.961,0.571-3.928,1.143-5.898,1.716c-1.826,0.528-3.449,0.939-5.077,1.151
	c-1.375,0.175-2.861,0.259-4.13,0.076c-1.289-0.164-2.361-0.511-3.19-0.929l-0.294-0.17c-0.069-0.038-0.076-0.039-0.128-0.051
	c0.019,0.071-0.274-0.225-0.426-0.354l-0.248-0.225c-0.274-0.245-0.545-0.531-0.765-0.894c-1.005-1.51-1.23-4.093-0.59-6.004
	c0.679-2.134,2.339-4.066,4.362-5.48c0.976-0.712,2.166-1.278,3.132-1.725c0.23-0.119,0.645-0.234,0.949-0.35
	c0.159-0.079,0.531-0.179,0.783-0.267c0.563-0.166,1.127-0.305,1.685-0.418c2.231-0.416,4.356-0.526,6.125-0.469
	c1.762,0.095,3.22,0.212,4.187,0.367c0.99,0.144,1.519,0.221,1.519,0.221s-0.4-0.347-1.229-0.917
	c-0.838-0.55-2.066-1.406-3.828-2.189c-1.752-0.776-4.012-1.67-6.852-2.008c-0.708-0.088-1.448-0.152-2.223-0.188
	c-0.416,0-0.723-0.029-1.247-0.002c-0.372,0.013-0.654-0.011-1.117,0.033c-1.805,0.141-3.467,0.504-5.295,1.11
	c-3.535,1.241-7.401,3.675-9.948,7.806c-2.545,4.272-3.444,9.691-1.303,15.172c0.54,1.351,1.274,2.7,2.271,3.912l0.182,0.229
	l0.093,0.113l0.046,0.058C411.794,279.238,411.561,278.997,411.922,279.375z M420.858,271.127l-0.045-0.047
	c-0.007-0.007-0.014-0.018-0.021-0.024C420.817,271.084,420.843,271.109,420.858,271.127z"/>
<ellipse cx="350.045" cy="256.932" rx="5.386" ry="5.248"/>
<ellipse cx="283.608" cy="312.36" rx="5.386" ry="5.248"/>
<ellipse cx="383.824" cy="312.36" rx="5.499" ry="5.355"/>
<path d="M235.804,553.814c-44.874-14.375-49.079-33.061-49.079-33.061c-0.619-19.958-32.768-32.025-24.465-5.117
	C171.194,544.595,235.804,553.814,235.804,553.814z"/>
<path d="M237.448,366.349c2.674-13.2,4.172-30.502,16.433-48.741c0,0-35.962,33.719-37.254,50.401
	C215.335,384.692,234.771,379.546,237.448,366.349z"/>
<path d="M173.882,487.55c2.111,4.884,4.611,9.256,7.334,13.312c2.671,3.957,5.433,7.698,8.213,11.154
	c5.495,6.982,11.221,12.807,16.478,17.716c5.27,4.911,10.233,8.772,14.388,11.819c4.133,3.08,7.626,5.17,9.947,6.649
	c2.363,1.411,3.624,2.165,3.624,2.165s-1.126-0.933-3.24-2.68c-2.082-1.776-5.083-4.425-8.771-7.91
	c-3.685-3.482-7.958-7.895-12.589-13.138c-4.577-5.29-9.436-11.484-14.188-18.553c-2.386-3.534-4.702-7.294-6.94-11.299
	c-2.142-3.929-4.289-8.066-5.815-12.403c-0.714-2.017-1.312-4.083-1.762-6.167c-3.428-17.687,8.163-25.017,14.694-27.691
	c16.133-5.84,40.304-7.085,55.086,16.159c0,0,9.651-8.744-2.917-18.145c0,0-8.689-6.667-21.257-6.778c0,0,8.051-2.952,21.911,3.483
	c0.021-2.495-1.003-5.919-5.816-8.509c0,0-12.281-5.794-19.687-5.902c0,0,5.878-1.384,20.39,2.731c-0.211-1.762-1.476-4-5.642-6.011
	c0,0-3.782-2.47-10.157-3.005c1.945-0.625,3.905-1.235,5.882-1.815c11.075-3.339,22.643-6.273,33.921-10.574
	c11.068-4.193,22.697-10.314,30.112-20.67c1.834-2.633,3.29-5.271,4.4-8.48c0.37-0.985,0.928-3.218,1.094-4.819
	c0.207-1.645,0.197-3.292,0.05-4.909c-0.621-6.484-3.912-12.319-8.619-16.291c-2.354-1.991-5.072-3.508-7.928-4.479l-2.169-0.599
	l-0.27-0.071l-0.375-0.082l-0.449-0.08l-0.897-0.159c-0.69-0.099-1.507-0.199-2.234-0.27c-0.715-0.027-1.421-0.082-2.137-0.058
	c-2.847,0.035-5.667,0.558-8.223,1.486c-2.554,0.942-4.829,2.262-6.809,3.744c-3.991,3.029-6.718,6.486-9.204,9.628
	c-2.468,3.193-4.652,6.184-6.873,8.809c-2.223,2.629-4.447,4.854-6.792,6.676c-2.237,1.685-4.707,3.023-7,3.836
	c-4.632,1.649-8.734,1.649-11.327,0.896c-0.663-0.153-1.232-0.343-1.709-0.549c-0.49-0.177-0.892-0.354-1.199-0.533
	c-0.628-0.329-0.954-0.5-0.954-0.5s4.441,9.638,23.744,8.981c19.302-0.655,27.607-8.981,27.607-8.981s-18.065-13.688,1.841-24.592
	c2.142-0.725,4.384-1.085,6.693-0.894c0.479,0.02,0.966,0.122,1.449,0.164l1.346,0.245l0.883,0.213l0.445,0.108l0.111,0.026
	c0.07,0.016-0.196-0.037-0.046-0.001l0.168,0.062l1.346,0.465c1.748,0.736,3.367,1.789,4.752,3.126
	c2.765,2.656,4.582,6.495,4.654,10.389c0.184,3.868-1.403,7.636-4.216,11.36c-2.759,3.619-6.605,6.749-11.014,9.354
	c-2.182,1.306-4.593,2.488-6.926,3.58c-2.498,1.149-4.979,2.141-7.6,3.118c-10.396,3.866-21.757,6.548-33.217,9.96
	c-11.468,3.527-23.165,7.775-33.602,14.6c-10.478,6.718-19.06,16.517-23.412,27.83c-2.183,5.644-3.188,11.762-2.723,17.622
	C170.147,477.274,171.814,482.676,173.882,487.55z"/>
<path d="M218.944,481.813c-0.587,1.917-1.176,3.834-1.762,5.745l-0.454,1.58l-0.161,0.607l-0.077,0.37l-0.156,0.737
	c-0.202,1.032-0.434,1.846-0.609,3.051c-0.17,1.159-0.343,2.311-0.51,3.459c-0.068,1.096-0.137,2.187-0.202,3.272
	c-0.046,2.165-0.096,4.303,0.143,6.387c0.311,4.173,1.128,8.136,2.291,11.744c1.117,3.623,2.597,6.891,4.203,9.748
	c1.596,2.861,3.337,5.31,5.035,7.331c1.68,2.03,3.32,3.642,4.743,4.869c1.356,1.282,2.606,2.105,3.408,2.691
	c0.821,0.563,1.259,0.864,1.259,0.864s-0.233-0.471-0.672-1.355c-0.467-0.851-1.087-2.134-1.834-3.744
	c-0.783-1.583-1.555-3.591-2.384-5.836c-0.395-1.134-0.854-2.309-1.196-3.6c-0.406-1.26-0.77-2.598-1.092-3.998
	c-0.683-2.786-1.249-5.811-1.549-9.007c-0.367-3.18-0.456-6.535-0.271-9.949c0.065-1.707,0.265-3.427,0.47-5.154
	c0.138-0.856,0.279-1.719,0.42-2.587l0.5-2.406c0.133-0.768,0.494-1.875,0.73-2.8l0.2-0.728l0.103-0.362
	c-0.021,0.078,0.061-0.239-0.043,0.164l0.014-0.04l0.025-0.082l0.048-0.161l0.408-1.32c0.633-1.942,1.269-3.892,1.907-5.842
	c0.602-2.107,1.189-4.464,1.478-6.884c0.34-2.654,0.227-5.267-0.307-7.956c-0.518-2.665-1.63-5.401-3.454-7.826l-0.717-0.89
	c-0.271-0.313-0.609-0.665-0.92-0.983c-0.384-0.396-0.463-0.427-0.677-0.622l-0.279-0.241c-0.389-0.354-0.141-0.124-0.243-0.214
	l-0.059-0.044l-0.118-0.091l-0.234-0.179c-1.245-0.969-2.629-1.683-4.016-2.209c-5.628-2.087-11.19-1.209-15.578,1.269
	c-4.241,2.481-6.743,6.245-8.015,9.691c-0.622,1.78-0.994,3.398-1.142,5.156c-0.043,0.452-0.018,0.726-0.032,1.088
	c-0.027,0.511,0.002,0.81,0.002,1.212c0.034,0.754,0.102,1.477,0.193,2.167c0.345,2.764,1.265,4.967,2.062,6.674
	c0.804,1.716,1.683,2.913,2.248,3.729c0.583,0.805,0.939,1.196,0.939,1.196s-0.08-0.516-0.227-1.479
	c-0.159-0.944-0.279-2.362-0.377-4.078c-0.059-1.725,0.055-3.792,0.481-5.966c0.116-0.544,0.26-1.092,0.427-1.641
	c0.093-0.248,0.193-0.608,0.277-0.763c0.119-0.298,0.236-0.701,0.356-0.924c0.461-0.942,1.042-2.1,1.773-3.054
	c1.448-1.968,3.435-3.587,5.626-4.246c1.961-0.624,4.614-0.405,6.165,0.573c0.372,0.217,0.663,0.479,0.915,0.745l0.233,0.244
	c0.132,0.147,0.434,0.433,0.363,0.416c0.011,0.051,0.014,0.057,0.052,0.122l0.175,0.29c0.429,0.807,0.786,1.849,0.953,3.107
	c0.188,1.234,0.103,2.683-0.079,4.022C219.909,478.455,219.487,480.036,218.944,481.813z M218.486,468.716l0.045,0.046
	c-0.016-0.018-0.042-0.039-0.07-0.066C218.468,468.704,218.479,468.709,218.486,468.716z"/>
<ellipse cx="203.96" cy="399.788" rx="5.385" ry="5.246"/>
<ellipse cx="260.868" cy="335.077" rx="5.387" ry="5.247"/>
<ellipse cx="260.867" cy="432.69" rx="5.499" ry="5.356"/>
<path d="M559.17,240.145c20.489-0.604,32.877-31.915,5.251-23.83c-29.729,8.704-39.193,71.635-39.193,71.635
	C539.984,244.241,559.17,240.145,559.17,240.145z"/>
<path d="M717.693,289.55c13.555,2.607,31.318,4.064,50.044,16.006c0,0-34.619-35.028-51.746-36.287
	C698.862,268.01,704.145,286.942,717.693,289.55z"/>
<path d="M568.14,242.779c-7.168,5.351-13.148,10.931-18.188,16.05c-5.042,5.135-9.006,9.966-12.137,14.014
	c-3.16,4.024-5.306,7.428-6.825,9.688c-1.448,2.302-2.22,3.529-2.22,3.529s0.956-1.096,2.75-3.155
	c1.825-2.027,4.542-4.951,8.121-8.543c3.575-3.588,8.104-7.75,13.488-12.261c5.431-4.459,11.792-9.191,19.048-13.819
	c3.633-2.325,7.493-4.58,11.598-6.76c4.036-2.083,8.282-4.178,12.736-5.664c2.071-0.697,4.191-1.278,6.335-1.716
	c18.153-3.339,25.683,7.952,28.425,14.313c5.999,15.714,7.274,39.258-16.587,53.655c0,0,8.977,9.4,18.631-2.842
	c0,0,6.843-8.463,6.956-20.705c0,0,3.033,7.841-3.578,21.342c2.562,0.02,6.08-0.977,8.736-5.665c0,0,5.948-11.962,6.066-19.175
	c0,0,1.417,5.726-2.807,19.86c1.808-0.205,4.104-1.438,6.167-5.495c0,0,2.543-3.685,3.088-9.894
	c0.645,1.895,1.271,3.804,1.861,5.729c3.433,10.788,6.443,22.054,10.861,33.04c4.305,10.781,10.589,22.108,21.219,29.33
	c2.701,1.789,5.413,3.205,8.705,4.286c1.012,0.36,3.306,0.905,4.949,1.065c1.689,0.202,3.378,0.193,5.04,0.049
	c6.656-0.604,12.65-3.811,16.729-8.394c2.043-2.294,3.597-4.941,4.595-7.723l0.618-2.109l0.072-0.264l0.082-0.367l0.082-0.437
	l0.163-0.874c0.1-0.673,0.208-1.469,0.277-2.174c0.026-0.699,0.086-1.387,0.059-2.083c-0.036-2.772-0.572-5.517-1.526-8.007
	c-0.971-2.488-2.324-4.703-3.841-6.634c-3.115-3.888-6.661-6.541-9.89-8.965c-3.273-2.404-6.349-4.531-9.041-6.694
	c-2.701-2.163-4.98-4.332-6.853-6.616c-1.733-2.178-3.105-4.582-3.94-6.815c-1.694-4.513-1.689-8.51-0.918-11.035
	c0.155-0.646,0.35-1.201,0.563-1.665c0.182-0.478,0.363-0.87,0.545-1.166c0.336-0.615,0.513-0.931,0.513-0.931
	s-9.894,4.325-9.222,23.127c0.673,18.801,9.222,26.89,9.222,26.89s14.055-17.596,25.252,1.793c0.745,2.086,1.112,4.273,0.917,6.522
	c-0.022,0.464-0.127,0.937-0.172,1.409l-0.251,1.312l-0.218,0.862l-0.113,0.431l-0.027,0.108c-0.014,0.069,0.041-0.19,0.005-0.042
	l-0.063,0.164l-0.478,1.309c-0.754,1.703-1.834,3.279-3.21,4.628c-2.729,2.694-6.67,4.463-10.666,4.534
	c-3.969,0.178-7.838-1.367-11.661-4.107c-3.718-2.688-6.929-6.433-9.607-10.728c-1.34-2.123-2.553-4.473-3.674-6.747
	c-1.181-2.433-2.197-4.85-3.201-7.401c-3.969-10.125-6.721-21.191-10.226-32.355c-3.623-11.169-7.982-22.561-14.989-32.728
	c-6.897-10.206-16.959-18.563-28.575-22.804c-5.794-2.125-12.073-3.104-18.09-2.651c-6.012,0.392-11.557,2.015-16.556,4.029
	c-5.022,2.057-9.509,4.492-13.672,7.143C575.527,237.381,571.686,240.07,568.14,242.779z"/>
<path d="M612.644,271.025l-0.25,0.225c-0.149,0.129-0.445,0.425-0.427,0.354c-0.05,0.012-0.059,0.013-0.123,0.051l-0.3,0.17
	c-0.826,0.418-1.897,0.765-3.187,0.929c-1.272,0.184-2.757,0.1-4.133-0.076c-1.625-0.212-3.251-0.624-5.076-1.151
	c-1.972-0.573-3.937-1.146-5.898-1.716l-1.621-0.442l-0.627-0.157l-0.372-0.076l-0.763-0.151c-1.059-0.197-1.894-0.423-3.133-0.593
	c-1.19-0.166-2.37-0.332-3.551-0.498c-1.126-0.066-2.243-0.131-3.36-0.197c-2.221-0.042-4.414-0.093-6.558,0.139
	c-4.277,0.303-8.346,1.099-12.055,2.231c-3.72,1.088-7.074,2.532-10.008,4.093c-2.938,1.555-5.452,3.251-7.526,4.905
	c-2.084,1.636-3.74,3.233-5,4.622c-1.317,1.318-2.161,2.536-2.763,3.317c-0.58,0.8-0.885,1.227-0.885,1.227s0.483-0.228,1.389-0.655
	c0.874-0.456,2.191-1.059,3.844-1.786c1.625-0.761,3.688-1.513,5.992-2.322c1.166-0.385,2.369-0.832,3.695-1.166
	c1.294-0.396,2.667-0.749,4.105-1.064c2.859-0.665,5.966-1.215,9.249-1.507c3.261-0.359,6.711-0.445,10.212-0.266
	c1.753,0.063,3.52,0.259,5.29,0.458c0.881,0.138,1.771,0.272,2.661,0.41l2.47,0.486c0.786,0.13,1.926,0.482,2.87,0.714l0.749,0.194
	l0.372,0.098c-0.077-0.02,0.245,0.062-0.168-0.042l0.046,0.013l0.082,0.024l0.163,0.047l1.354,0.398
	c1.997,0.618,3.995,1.238,6.002,1.855c2.162,0.588,4.582,1.161,7.066,1.442c2.724,0.331,5.407,0.221,8.168-0.299
	c2.738-0.504,5.545-1.587,8.033-3.363l0.917-0.699c0.317-0.263,0.681-0.592,1.008-0.895c0.409-0.374,0.436-0.449,0.636-0.659
	l0.25-0.272c0.363-0.378,0.127-0.137,0.223-0.237l0.045-0.058l0.091-0.113l0.182-0.229c0.999-1.212,1.73-2.562,2.271-3.912
	c2.144-5.481,1.244-10.9-1.303-15.172c-2.548-4.131-6.412-6.565-9.949-7.806c-1.825-0.606-3.487-0.969-5.295-1.11
	c-0.463-0.044-0.744-0.02-1.117-0.033c-0.525-0.027-0.83,0.002-1.243,0.002c-0.772,0.035-1.517,0.099-2.226,0.188
	c-2.838,0.338-5.095,1.231-6.852,2.008c-1.762,0.783-2.992,1.639-3.828,2.189c-0.826,0.569-1.226,0.917-1.226,0.917
	s0.526-0.078,1.517-0.221c0.972-0.155,2.424-0.272,4.187-0.367c1.771-0.058,3.896,0.053,6.126,0.469
	c0.558,0.113,1.121,0.252,1.684,0.418c0.255,0.088,0.627,0.188,0.781,0.267c0.309,0.115,0.722,0.23,0.953,0.35
	c0.963,0.446,2.152,1.013,3.134,1.725c2.021,1.414,3.683,3.346,4.359,5.48c0.64,1.911,0.417,4.494-0.591,6.004
	C613.188,270.494,612.916,270.78,612.644,271.025z M612.553,271.127c0.014-0.018,0.037-0.043,0.063-0.071
	c-0.009,0.007-0.014,0.018-0.018,0.024L612.553,271.127z"/>
<path d="M683.361,262.179c2.979,0,5.386-2.35,5.386-5.247c0-2.899-2.407-5.248-5.386-5.248c-2.975,0-5.386,2.349-5.386,5.248
	C677.976,259.829,680.387,262.179,683.361,262.179z"/>
<path d="M755.187,312.36c0-2.897-2.411-5.247-5.386-5.247c-2.979,0-5.385,2.35-5.385,5.247s2.406,5.248,5.385,5.248
	C752.775,317.607,755.187,315.257,755.187,312.36z"/>
<ellipse cx="649.583" cy="312.36" rx="5.499" ry="5.355"/>
<path d="M846.684,520.754c0,0-4.205,18.686-49.082,33.061c0,0,64.61-9.22,73.546-38.178
	C879.448,488.729,847.3,500.796,846.684,520.754z"/>
<path d="M816.777,368.009c-1.29-16.683-37.253-50.401-37.253-50.401c12.261,18.239,13.759,35.541,16.438,48.741
	C798.633,379.546,818.076,384.692,816.777,368.009z"/>
<path d="M770.707,401.408c-2.621-0.977-5.1-1.968-7.597-3.118c-2.334-1.092-4.745-2.274-6.93-3.58
	c-4.409-2.605-8.25-5.735-11.011-9.354c-2.815-3.725-4.404-7.493-4.219-11.36c0.078-3.894,1.89-7.733,4.654-10.389
	c1.385-1.338,3.006-2.391,4.75-3.126l1.349-0.465l0.167-0.062c0.15-0.035-0.112,0.018-0.045,0.001l0.114-0.026l0.44-0.108
	l0.885-0.213l1.349-0.245c0.481-0.042,0.968-0.144,1.443-0.164c2.313-0.192,4.56,0.168,6.698,0.894
	c19.902,10.904,1.839,24.592,1.839,24.592s8.305,8.326,27.608,8.981c19.303,0.657,23.747-8.981,23.747-8.981s-0.326,0.171-0.957,0.5
	c-0.305,0.179-0.704,0.356-1.199,0.533c-0.477,0.206-1.045,0.396-1.708,0.549c-2.592,0.753-6.696,0.753-11.328-0.896
	c-2.293-0.813-4.76-2.152-7.002-3.836c-2.344-1.822-4.568-4.047-6.788-6.676c-2.222-2.625-4.409-5.615-6.871-8.809
	c-2.487-3.142-5.217-6.599-9.208-9.628c-1.979-1.482-4.255-2.802-6.812-3.744c-2.552-0.928-5.372-1.451-8.219-1.486
	c-0.717-0.024-1.421,0.031-2.139,0.058c-0.727,0.071-1.544,0.17-2.229,0.27l-0.898,0.159l-0.454,0.08l-0.372,0.082l-0.273,0.071
	l-2.166,0.599c-2.855,0.971-5.571,2.488-7.928,4.479c-4.704,3.971-7.996,9.807-8.618,16.291c-0.149,1.617-0.159,3.265,0.05,4.909
	c0.168,1.601,0.727,3.834,1.1,4.819c1.107,3.209,2.56,5.847,4.395,8.48c7.42,10.356,19.044,16.478,30.114,20.67
	c11.279,4.301,22.845,7.235,33.92,10.574c1.979,0.58,3.937,1.19,5.885,1.815c-6.376,0.536-10.163,3.005-10.163,3.005
	c-4.158,2.011-5.426,4.249-5.639,6.011c14.512-4.115,20.393-2.731,20.393-2.731c-7.407,0.108-19.685,5.902-19.685,5.902
	c-4.813,2.59-5.84,6.015-5.821,8.509c13.858-6.435,21.914-3.483,21.914-3.483c-12.569,0.111-21.26,6.778-21.26,6.778
	c-12.569,9.4-2.916,18.145-2.916,18.145c14.78-23.244,38.951-21.999,55.088-16.159c6.53,2.674,18.118,10.004,14.694,27.691
	c-0.454,2.085-1.05,4.151-1.762,6.167c-1.524,4.337-3.677,8.475-5.816,12.403c-2.238,4.005-4.555,7.765-6.942,11.299
	c-4.749,7.069-9.608,13.264-14.186,18.553c-4.632,5.243-8.904,9.655-12.587,13.138c-3.691,3.485-6.693,6.134-8.772,7.91
	c-2.116,1.747-3.242,2.68-3.242,2.68s1.262-0.754,3.623-2.165c2.325-1.479,5.816-3.569,9.944-6.649
	c4.159-3.047,9.118-6.908,14.391-11.819c5.257-4.909,10.983-10.734,16.478-17.716c2.783-3.457,5.54-7.198,8.214-11.154
	c2.72-4.056,5.226-8.428,7.334-13.312c2.07-4.874,3.736-10.276,4.141-16.13c0.463-5.86-0.545-11.979-2.726-17.622
	c-4.354-11.313-12.931-21.112-23.411-27.83c-10.438-6.824-22.136-11.073-33.602-14.6
	C792.467,407.956,781.105,405.273,770.707,401.408z"/>
<path d="M804.49,525.736c-0.318,1.4-0.681,2.738-1.09,3.998c-0.345,1.292-0.799,2.466-1.199,3.6
	c-0.826,2.246-1.598,4.253-2.379,5.836c-0.754,1.609-1.371,2.893-1.835,3.744c-0.439,0.885-0.672,1.355-0.672,1.355
	s0.436-0.301,1.253-0.864c0.809-0.586,2.058-1.409,3.41-2.691c1.422-1.227,3.065-2.839,4.745-4.869
	c1.698-2.021,3.438-4.47,5.031-7.331c1.608-2.857,3.088-6.125,4.205-9.748c1.162-3.608,1.979-7.571,2.293-11.744
	c0.236-2.083,0.187-4.222,0.142-6.387c-0.064-1.085-0.137-2.176-0.2-3.272c-0.173-1.148-0.341-2.3-0.509-3.459
	c-0.177-1.205-0.408-2.019-0.609-3.051l-0.158-0.737l-0.077-0.37l-0.164-0.607l-0.454-1.58c-0.585-1.911-1.171-3.828-1.762-5.745
	c-0.54-1.778-0.962-3.359-1.18-4.944c-0.182-1.34-0.264-2.788-0.082-4.022c0.173-1.258,0.526-2.3,0.958-3.107l0.172-0.29
	c0.041-0.064,0.041-0.071,0.05-0.122c-0.067,0.017,0.237-0.268,0.369-0.416l0.231-0.244c0.254-0.266,0.545-0.528,0.917-0.745
	c1.548-0.978,4.204-1.197,6.166-0.573c2.189,0.659,4.173,2.278,5.621,4.246c0.736,0.954,1.317,2.111,1.771,3.054
	c0.123,0.224,0.246,0.626,0.363,0.924c0.082,0.155,0.182,0.516,0.273,0.763c0.169,0.548,0.31,1.097,0.428,1.641
	c0.425,2.174,0.545,4.242,0.48,5.966c-0.1,1.716-0.218,3.134-0.373,4.078c-0.148,0.964-0.226,1.479-0.226,1.479
	s0.354-0.392,0.935-1.196c0.563-0.816,1.443-2.013,2.252-3.729c0.795-1.707,1.712-3.91,2.063-6.674
	c0.09-0.69,0.153-1.413,0.189-2.167c0-0.402,0.028-0.701,0-1.212c-0.008-0.362,0.015-0.637-0.031-1.088
	c-0.15-1.758-0.517-3.376-1.141-5.156c-1.27-3.446-3.777-7.209-8.018-9.691c-4.388-2.479-9.944-3.356-15.575-1.269
	c-1.386,0.527-2.77,1.241-4.014,2.209l-0.236,0.179l-0.118,0.091l-0.055,0.044c-0.104,0.091,0.146-0.14-0.245,0.214l-0.281,0.241
	c-0.214,0.194-0.291,0.225-0.673,0.622c-0.313,0.318-0.653,0.67-0.926,0.983l-0.717,0.89c-1.817,2.425-2.934,5.161-3.451,7.826
	c-0.536,2.689-0.645,5.302-0.305,7.956c0.286,2.42,0.877,4.777,1.476,6.884c0.636,1.951,1.271,3.9,1.907,5.842l0.409,1.32
	l0.05,0.161l0.022,0.082l0.018,0.04c-0.108-0.402-0.026-0.086-0.045-0.164l0.101,0.362l0.199,0.728
	c0.235,0.925,0.599,2.033,0.735,2.8l0.5,2.406c0.136,0.869,0.276,1.731,0.417,2.587c0.2,1.727,0.404,3.447,0.468,5.154
	c0.187,3.414,0.096,6.769-0.268,9.949C805.738,519.925,805.176,522.95,804.49,525.736z M814.947,468.696
	c-0.032,0.027-0.054,0.048-0.073,0.066l0.051-0.046C814.93,468.709,814.942,468.704,814.947,468.696z"/>
<path d="M829.446,405.035c2.979,0,5.385-2.349,5.385-5.248c0-2.897-2.406-5.245-5.385-5.245c-2.974,0-5.386,2.348-5.386,5.245
	C824.061,402.686,826.473,405.035,829.446,405.035z"/>
<path d="M772.541,340.323c2.975,0,5.386-2.349,5.386-5.246c0-2.899-2.411-5.248-5.386-5.248c-2.979,0-5.385,2.348-5.385,5.248
	C767.156,337.974,769.563,340.323,772.541,340.323z"/>
<path d="M778.04,432.69c0-2.958-2.465-5.356-5.499-5.356c-3.037,0-5.503,2.397-5.503,5.356c0,2.959,2.466,5.356,5.503,5.356
	C775.575,438.046,778.04,435.649,778.04,432.69z"/>
<path d="M474.239,879.179c-20.492,0.603-32.88,31.915-5.253,23.831c29.73-8.704,39.195-71.636,39.195-71.636
	C493.424,875.084,474.239,879.179,474.239,879.179z"/>
<path d="M315.713,829.772c-13.552-2.604-31.315-4.065-50.042-16.006c0,0,34.622,35.029,51.749,36.284
	C334.548,851.315,329.265,832.377,315.713,829.772z"/>
<path d="M465.269,876.544c7.165-5.352,13.145-10.93,18.188-16.051c5.04-5.135,9.005-9.964,12.136-14.016
	c3.162-4.024,5.305-7.426,6.825-9.687c1.449-2.3,2.223-3.529,2.223-3.529s-0.956,1.098-2.752,3.159
	c-1.823,2.025-4.543,4.949-8.121,8.54c-3.576,3.586-8.105,7.753-13.486,12.263c-5.434,4.459-11.79,9.191-19.051,13.817
	c-3.627,2.327-7.487,4.582-11.599,6.763c-4.033,2.083-8.28,4.175-12.732,5.665c-2.073,0.691-4.191,1.273-6.332,1.718
	c-18.158,3.334-25.687-7.953-28.432-14.313c-5.996-15.72-7.271-39.261,16.592-53.657c0,0-8.979-9.402-18.628,2.839
	c0,0-6.848,8.465-6.959,20.707c0,0-3.031-7.845,3.574-21.345c-2.562-0.017-6.076,0.983-8.736,5.667c0,0-5.948,11.963-6.06,19.177
	c0,0-1.421-5.727,2.806-19.862c-1.812,0.207-4.109,1.441-6.173,5.493c0,0-2.536,3.688-3.085,9.896
	c-0.642-1.896-1.269-3.803-1.864-5.731c-3.427-10.786-6.438-22.052-10.857-33.037c-4.305-10.782-10.59-22.105-21.219-29.332
	c-2.705-1.787-5.416-3.202-8.707-4.281c-1.01-0.362-3.306-0.906-4.95-1.07c-1.689-0.203-3.378-0.195-5.038-0.049
	c-6.66,0.605-12.651,3.813-16.727,8.395c-2.043,2.296-3.603,4.939-4.6,7.723l-0.613,2.109l-0.075,0.265l-0.084,0.363l-0.082,0.442
	l-0.161,0.871c-0.103,0.672-0.207,1.468-0.277,2.176c-0.028,0.699-0.084,1.384-0.059,2.083c0.033,2.773,0.569,5.521,1.522,8.006
	c0.97,2.489,2.325,4.705,3.844,6.634c3.11,3.888,6.66,6.546,9.888,8.97c3.277,2.397,6.346,4.528,9.043,6.691
	c2.7,2.162,4.981,4.33,6.852,6.612c1.73,2.185,3.104,4.586,3.939,6.82c1.693,4.511,1.693,8.509,0.921,11.033
	c-0.156,0.646-0.354,1.2-0.565,1.664c-0.179,0.481-0.363,0.871-0.545,1.168c-0.34,0.614-0.515,0.928-0.515,0.928
	s9.894-4.325,9.222-23.127c-0.674-18.801-9.222-26.89-9.222-26.89s-14.054,17.594-25.249-1.796c-0.743-2.083-1.115-4.269-0.915-6.52
	c0.018-0.464,0.123-0.937,0.165-1.405l0.252-1.314l0.22-0.861l0.11-0.43l0.027-0.11c0.016-0.067-0.039,0.19,0,0.044l0.062-0.163
	l0.476-1.314c0.756-1.698,1.84-3.277,3.211-4.626c2.728-2.693,6.67-4.458,10.668-4.533c3.968-0.182,7.84,1.366,11.66,4.109
	c3.719,2.688,6.932,6.43,9.604,10.725c1.344,2.127,2.556,4.476,3.676,6.749c1.183,2.429,2.198,4.848,3.204,7.399
	c3.966,10.127,6.723,21.194,10.223,32.357c3.621,11.167,7.983,22.561,14.989,32.728c6.899,10.208,16.957,18.563,28.572,22.805
	c5.794,2.122,12.079,3.104,18.096,2.648c6.007-0.389,11.554-2.013,16.558-4.028c5.016-2.053,9.504-4.494,13.667-7.144
	C457.879,881.938,461.718,879.254,465.269,876.544z"/>
<path d="M420.765,848.3l0.248-0.226c0.152-0.128,0.445-0.425,0.426-0.358c0.052-0.009,0.059-0.009,0.128-0.049l0.294-0.168
	c0.829-0.421,1.901-0.765,3.19-0.933c1.269-0.177,2.754-0.097,4.13,0.08c1.627,0.212,3.251,0.622,5.077,1.149
	c1.971,0.574,3.937,1.145,5.898,1.716l1.624,0.441l0.622,0.16l0.379,0.075l0.756,0.154c1.062,0.194,1.898,0.415,3.133,0.592
	c1.189,0.164,2.375,0.329,3.553,0.496c1.126,0.062,2.246,0.133,3.358,0.195c2.222,0.043,4.418,0.093,6.557-0.138
	c4.284-0.305,8.353-1.101,12.058-2.234c3.721-1.088,7.074-2.529,10.008-4.095c2.938-1.548,5.451-3.245,7.526-4.9
	c2.086-1.636,3.739-3.237,4.999-4.621c1.319-1.323,2.162-2.534,2.764-3.322c0.579-0.796,0.888-1.22,0.888-1.22
	s-0.484,0.226-1.392,0.649c-0.874,0.455-2.19,1.061-3.844,1.792c-1.626,0.761-3.685,1.512-5.991,2.316
	c-1.165,0.39-2.369,0.832-3.697,1.168c-1.292,0.398-2.665,0.747-4.104,1.061c-2.858,0.668-5.966,1.217-9.245,1.514
	c-3.267,0.354-6.711,0.442-10.214,0.261c-1.753-0.067-3.519-0.261-5.292-0.456c-0.881-0.137-1.767-0.273-2.656-0.407l-2.473-0.49
	c-0.786-0.128-1.923-0.482-2.874-0.713l-0.745-0.193l-0.375-0.099c0.082,0.019-0.245-0.062,0.168,0.04l-0.041-0.013l-0.084-0.021
	l-0.167-0.049L444,837.057c-1.993-0.619-3.996-1.238-5.996-1.857c-2.164-0.584-4.584-1.158-7.068-1.442
	c-2.727-0.327-5.411-0.22-8.171,0.301c-2.736,0.504-5.545,1.592-8.035,3.362l-0.913,0.699c-0.322,0.264-0.684,0.593-1.01,0.901
	c-0.407,0.372-0.437,0.447-0.638,0.654l-0.248,0.274c-0.361,0.381-0.127,0.138-0.22,0.234l-0.046,0.059l-0.093,0.114l-0.182,0.229
	c-0.997,1.213-1.73,2.561-2.271,3.909c-2.141,5.485-1.242,10.898,1.303,15.17c2.547,4.132,6.414,6.573,9.948,7.812
	c1.828,0.605,3.49,0.965,5.295,1.109c0.463,0.045,0.745,0.023,1.117,0.032c0.524,0.026,0.832,0,1.247,0
	c0.774-0.035,1.514-0.097,2.223-0.186c2.839-0.341,5.099-1.235,6.852-2.013c1.762-0.782,2.99-1.642,3.828-2.189
	c0.828-0.567,1.229-0.911,1.229-0.911s-0.529,0.075-1.519,0.221c-0.967,0.15-2.425,0.266-4.187,0.363
	c-1.769,0.063-3.894-0.053-6.125-0.469c-0.558-0.115-1.122-0.252-1.685-0.415c-0.252-0.09-0.625-0.188-0.783-0.268
	c-0.304-0.113-0.719-0.233-0.949-0.354c-0.966-0.442-2.156-1.008-3.132-1.724c-2.023-1.412-3.683-3.344-4.362-5.475
	c-0.64-1.916-0.416-4.499,0.59-6.008C420.22,848.83,420.491,848.547,420.765,848.3z M420.858,848.198
	c-0.015,0.013-0.041,0.04-0.065,0.066c0.007-0.005,0.013-0.019,0.021-0.019L420.858,848.198z"/>
<path d="M350.045,857.146c-2.976,0-5.388,2.348-5.388,5.245c0,2.901,2.412,5.246,5.388,5.246c2.975,0,5.386-2.345,5.386-5.246
	C355.431,859.493,353.02,857.146,350.045,857.146z"/>
<path d="M278.222,806.965c0,2.896,2.412,5.244,5.385,5.244c2.977,0,5.388-2.348,5.388-5.244c0-2.902-2.411-5.246-5.388-5.246
	C280.633,801.719,278.222,804.063,278.222,806.965z"/>
<path d="M378.325,806.965c0,2.953,2.461,5.352,5.499,5.352c3.038,0,5.499-2.398,5.499-5.352c0-2.959-2.461-5.361-5.499-5.361
	C380.786,801.604,378.325,804.006,378.325,806.965z"/>
<path d="M186.726,598.568c0,0,4.205-18.687,49.079-33.061c0,0-64.61,9.218-73.543,38.178
	C153.958,630.594,186.106,618.528,186.726,598.568z"/>
<path d="M216.627,751.313c1.292,16.688,37.254,50.406,37.254,50.406c-12.26-18.239-13.758-35.546-16.433-48.742
	C234.771,739.773,215.335,734.63,216.627,751.313z"/>
<path d="M262.699,717.916c2.62,0.978,5.102,1.964,7.6,3.114c2.333,1.097,4.745,2.273,6.926,3.582
	c4.409,2.605,8.255,5.732,11.014,9.359c2.813,3.72,4.4,7.491,4.216,11.356c-0.072,3.893-1.889,7.731-4.654,10.386
	c-1.385,1.34-3.004,2.396-4.752,3.131l-1.346,0.464l-0.168,0.058c-0.15,0.04,0.116-0.014,0.046,0l-0.111,0.026l-0.445,0.106
	l-0.883,0.217l-1.346,0.244c-0.483,0.044-0.97,0.145-1.449,0.163c-2.309,0.194-4.551-0.169-6.693-0.89
	c-19.906-10.906-1.841-24.595-1.841-24.595s-8.305-8.328-27.607-8.982c-19.303-0.655-23.744,8.982-23.744,8.982
	s0.325-0.173,0.954-0.5c0.307-0.181,0.708-0.357,1.199-0.53c0.477-0.208,1.046-0.397,1.709-0.553
	c2.593-0.752,6.695-0.756,11.327,0.897c2.293,0.814,4.763,2.15,7,3.84c2.345,1.822,4.569,4.042,6.792,6.669
	c2.22,2.627,4.404,5.616,6.873,8.811c2.486,3.14,5.212,6.599,9.204,9.632c1.98,1.478,4.255,2.796,6.809,3.742
	c2.556,0.929,5.376,1.45,8.223,1.486c0.715,0.021,1.421-0.036,2.137-0.062c0.727-0.067,1.544-0.169,2.234-0.267l0.897-0.158
	l0.449-0.08l0.375-0.079l0.27-0.075l2.169-0.598c2.856-0.973,5.573-2.489,7.928-4.48c4.707-3.972,7.998-9.805,8.619-16.289
	c0.147-1.618,0.156-3.264-0.05-4.909c-0.166-1.601-0.724-3.839-1.094-4.82c-1.111-3.207-2.566-5.848-4.4-8.483
	c-7.416-10.349-19.044-16.471-30.112-20.663c-11.279-4.308-22.847-7.235-33.921-10.579c-1.977-0.575-3.937-1.186-5.882-1.813
	c6.375-0.535,10.157-3.008,10.157-3.008c4.167-2.008,5.431-4.245,5.642-6.01c-14.512,4.117-20.39,2.733-20.39,2.733
	c7.406-0.111,19.687-5.904,19.687-5.904c4.813-2.592,5.837-6.016,5.816-8.51c-13.86,6.436-21.911,3.485-21.911,3.485
	c12.568-0.11,21.257-6.78,21.257-6.78c12.568-9.398,2.917-18.146,2.917-18.146c-14.782,23.246-38.953,22.003-55.086,16.161
	c-6.532-2.672-18.123-10.005-14.694-27.691c0.45-2.083,1.047-4.153,1.762-6.17c1.526-4.335,3.673-8.474,5.815-12.401
	c2.238-4.003,4.554-7.763,6.94-11.296c4.752-7.071,9.611-13.269,14.188-18.558c4.632-5.237,8.904-9.65,12.589-13.136
	c3.687-3.485,6.688-6.13,8.771-7.908c2.114-1.751,3.24-2.681,3.24-2.681s-1.26,0.753-3.624,2.168
	c-2.321,1.477-5.814,3.564-9.947,6.643c-4.154,3.052-9.118,6.909-14.388,11.822c-5.257,4.913-10.983,10.734-16.478,17.713
	c-2.781,3.459-5.542,7.2-8.213,11.159c-2.723,4.056-5.223,8.425-7.334,13.313c-2.068,4.869-3.735,10.274-4.137,16.13
	c-0.465,5.855,0.54,11.977,2.723,17.62c4.352,11.313,12.934,21.114,23.412,27.833c10.437,6.824,22.134,11.07,33.602,14.6
	C240.942,711.366,252.303,714.051,262.699,717.916z"/>
<path d="M228.917,593.588c0.322-1.401,0.686-2.737,1.092-3.998c0.343-1.296,0.802-2.464,1.196-3.604
	c0.829-2.242,1.601-4.246,2.384-5.829c0.747-1.609,1.367-2.897,1.834-3.746c0.438-0.885,0.672-1.357,0.672-1.357
	s-0.438,0.3-1.259,0.866c-0.802,0.584-2.052,1.407-3.408,2.689c-1.423,1.229-3.063,2.839-4.743,4.874
	c-1.698,2.017-3.439,4.467-5.035,7.328c-1.605,2.853-3.086,6.126-4.203,9.743c-1.162,3.614-1.979,7.576-2.291,11.747
	c-0.239,2.088-0.189,4.224-0.143,6.387c0.065,1.088,0.134,2.176,0.202,3.272c0.167,1.15,0.34,2.3,0.51,3.459
	c0.175,1.202,0.407,2.017,0.609,3.052l0.156,0.738l0.077,0.367l0.161,0.61l0.454,1.579c0.586,1.906,1.174,3.826,1.762,5.745
	c0.542,1.777,0.965,3.361,1.181,4.944c0.182,1.341,0.268,2.786,0.079,4.024c-0.167,1.257-0.524,2.301-0.953,3.105l-0.175,0.287
	c-0.039,0.066-0.041,0.075-0.052,0.124c0.07-0.018-0.231,0.27-0.363,0.412l-0.233,0.246c-0.252,0.267-0.542,0.532-0.915,0.744
	c-1.551,0.981-4.203,1.193-6.165,0.574c-2.191-0.663-4.178-2.277-5.626-4.246c-0.731-0.955-1.313-2.114-1.773-3.056
	c-0.12-0.222-0.238-0.623-0.356-0.925c-0.083-0.15-0.184-0.512-0.277-0.76c-0.167-0.549-0.311-1.098-0.427-1.642
	c-0.426-2.172-0.54-4.24-0.481-5.966c0.098-1.717,0.218-3.132,0.377-4.078c0.147-0.964,0.227-1.481,0.227-1.481
	s-0.356,0.394-0.939,1.199c-0.565,0.813-1.444,2.012-2.248,3.724c-0.797,1.711-1.717,3.909-2.062,6.678
	c-0.091,0.69-0.159,1.411-0.193,2.168c0,0.397-0.029,0.698-0.002,1.211c0.014,0.363-0.012,0.637,0.032,1.088
	c0.147,1.761,0.52,3.38,1.142,5.157c1.271,3.441,3.774,7.209,8.015,9.69c4.387,2.481,9.949,3.357,15.578,1.27
	c1.387-0.526,2.771-1.243,4.016-2.212l0.234-0.177l0.118-0.088l0.059-0.045c0.103-0.098-0.146,0.133,0.243-0.217l0.279-0.242
	c0.214-0.194,0.293-0.222,0.677-0.619c0.311-0.319,0.649-0.673,0.92-0.982l0.717-0.894c1.823-2.424,2.936-5.157,3.454-7.828
	c0.533-2.685,0.647-5.299,0.307-7.952c-0.289-2.424-0.876-4.777-1.478-6.887c-0.638-1.95-1.274-3.896-1.907-5.842l-0.408-1.318
	l-0.048-0.163l-0.025-0.08l-0.014-0.039c0.104,0.401,0.023,0.083,0.043,0.163l-0.103-0.367l-0.2-0.726
	c-0.236-0.924-0.597-2.034-0.73-2.795l-0.5-2.411c-0.141-0.866-0.282-1.729-0.42-2.587c-0.205-1.725-0.404-3.45-0.47-5.157
	c-0.184-3.41-0.096-6.767,0.271-9.946C227.668,599.396,228.233,596.37,228.917,593.588z M218.461,650.629
	c0.028-0.026,0.055-0.054,0.07-0.066l-0.045,0.044C218.479,650.61,218.468,650.619,218.461,650.629z"/>
<path d="M203.96,714.29c-2.977,0-5.388,2.348-5.388,5.245c0,2.901,2.411,5.245,5.388,5.245c2.974,0,5.385-2.344,5.385-5.245
	C209.346,716.638,206.934,714.29,203.96,714.29z"/>
<path d="M260.868,778.999c-2.977,0-5.388,2.349-5.388,5.25c0,2.893,2.411,5.245,5.388,5.245c2.974,0,5.387-2.353,5.387-5.245
	C266.254,781.348,263.841,778.999,260.868,778.999z"/>
<ellipse cx="260.867" cy="686.634" rx="5.499" ry="5.356"/>
<path d="M559.17,879.179c0,0-19.186-4.095-33.942-47.805c0,0,9.465,62.932,39.193,71.636
	C592.047,911.094,579.659,879.781,559.17,879.179z"/>
<path d="M715.991,850.051c17.127-1.255,51.746-36.284,51.746-36.284c-18.726,11.94-36.489,13.401-50.044,16.006
	C704.145,832.377,698.862,851.315,715.991,850.051z"/>
<path d="M702.104,827.628c1.872-2.282,4.151-4.45,6.853-6.612c2.692-2.163,5.768-4.294,9.041-6.691
	c3.229-2.424,6.774-5.082,9.89-8.97c1.517-1.929,2.87-4.145,3.841-6.634c0.954-2.485,1.49-5.232,1.526-8.006
	c0.027-0.699-0.032-1.384-0.059-2.083c-0.069-0.708-0.178-1.504-0.277-2.176l-0.163-0.871l-0.082-0.442l-0.082-0.363l-0.072-0.265
	l-0.618-2.109c-0.998-2.783-2.552-5.427-4.595-7.723c-4.078-4.582-10.072-7.789-16.729-8.395c-1.662-0.146-3.351-0.154-5.04,0.049
	c-1.644,0.164-3.938,0.708-4.949,1.07c-3.292,1.079-6.004,2.494-8.705,4.281c-10.63,7.227-16.914,18.55-21.219,29.332
	c-4.418,10.985-7.429,22.251-10.861,33.037c-0.59,1.929-1.217,3.835-1.861,5.731c-0.545-6.209-3.088-9.896-3.088-9.896
	c-2.063-4.052-4.359-5.286-6.167-5.493c4.224,14.136,2.807,19.862,2.807,19.862c-0.118-7.214-6.066-19.177-6.066-19.177
	c-2.656-4.684-6.175-5.684-8.736-5.667c6.611,13.5,3.578,21.345,3.578,21.345c-0.113-12.242-6.956-20.707-6.956-20.707
	c-9.654-12.241-18.631-2.839-18.631-2.839c23.861,14.396,22.586,37.938,16.587,53.657c-2.742,6.359-10.271,17.646-28.425,14.313
	c-2.144-0.444-4.264-1.026-6.335-1.718c-4.454-1.49-8.7-3.582-12.736-5.665c-4.104-2.181-7.965-4.436-11.598-6.763
	c-7.256-4.626-13.617-9.358-19.048-13.817c-5.384-4.51-9.913-8.677-13.488-12.263c-3.578-3.591-6.296-6.515-8.121-8.54
	c-1.794-2.062-2.75-3.159-2.75-3.159s0.771,1.229,2.22,3.529c1.519,2.261,3.665,5.662,6.825,9.687
	c3.131,4.052,7.095,8.881,12.137,14.016c5.04,5.121,11.021,10.699,18.188,16.051c3.546,2.71,7.388,5.395,11.452,8
	c4.163,2.649,8.649,5.091,13.672,7.144c4.999,2.016,10.544,3.64,16.556,4.028c6.017,0.455,12.296-0.526,18.09-2.648
	c11.616-4.242,21.678-12.597,28.575-22.805c7.007-10.167,11.366-21.561,14.989-32.728c3.505-11.163,6.257-22.23,10.226-32.357
	c1.004-2.552,2.021-4.971,3.201-7.399c1.121-2.273,2.334-4.622,3.674-6.749c2.679-4.295,5.89-8.036,9.607-10.725
	c3.823-2.743,7.692-4.291,11.661-4.109c3.996,0.075,7.937,1.84,10.666,4.533c1.376,1.349,2.456,2.928,3.21,4.626l0.478,1.314
	l0.063,0.163c0.036,0.146-0.019-0.111-0.005-0.044l0.027,0.11l0.113,0.43l0.218,0.861l0.251,1.314
	c0.045,0.469,0.149,0.941,0.172,1.405c0.195,2.251-0.172,4.437-0.917,6.52c-11.197,19.39-25.252,1.796-25.252,1.796
	s-8.549,8.089-9.222,26.89c-0.672,18.802,9.222,23.127,9.222,23.127s-0.177-0.313-0.513-0.928c-0.182-0.297-0.363-0.687-0.545-1.168
	c-0.214-0.464-0.408-1.019-0.563-1.664c-0.771-2.524-0.776-6.522,0.918-11.033C698.999,832.214,700.371,829.813,702.104,827.628z"/>
<path d="M621.484,839.949l-0.25-0.274c-0.2-0.207-0.227-0.282-0.636-0.654c-0.327-0.309-0.69-0.638-1.008-0.901l-0.917-0.699
	c-2.488-1.771-5.295-2.858-8.033-3.362c-2.761-0.521-5.444-0.628-8.168-0.301c-2.484,0.284-4.904,0.858-7.066,1.442
	c-2.007,0.619-4.005,1.238-6.002,1.857l-1.354,0.398l-0.163,0.049l-0.082,0.021l-0.046,0.013c0.413-0.102,0.091-0.021,0.168-0.04
	l-0.372,0.099l-0.749,0.193c-0.944,0.23-2.084,0.585-2.87,0.713l-2.47,0.49c-0.89,0.134-1.78,0.271-2.661,0.407
	c-1.771,0.195-3.537,0.389-5.29,0.456c-3.501,0.182-6.951,0.093-10.212-0.261c-3.283-0.297-6.39-0.846-9.249-1.514
	c-1.438-0.313-2.812-0.662-4.105-1.061c-1.326-0.336-2.529-0.778-3.695-1.168c-2.305-0.805-4.367-1.556-5.992-2.316
	c-1.653-0.731-2.97-1.337-3.844-1.792c-0.906-0.424-1.389-0.649-1.389-0.649s0.306,0.424,0.885,1.22
	c0.602,0.788,1.446,1.999,2.763,3.322c1.26,1.384,2.916,2.985,5,4.621c2.074,1.655,4.588,3.353,7.526,4.9
	c2.934,1.565,6.288,3.007,10.008,4.095c3.709,1.134,7.777,1.93,12.055,2.234c2.144,0.23,4.337,0.181,6.558,0.138
	c1.117-0.063,2.234-0.134,3.36-0.195c1.181-0.167,2.36-0.332,3.551-0.496c1.239-0.177,2.074-0.397,3.133-0.592l0.763-0.154
	l0.372-0.075l0.627-0.16l1.621-0.441c1.962-0.571,3.927-1.142,5.898-1.716c1.825-0.527,3.451-0.938,5.076-1.149
	c1.376-0.177,2.86-0.257,4.133-0.08c1.289,0.168,2.36,0.512,3.187,0.933l0.3,0.168c0.064,0.04,0.073,0.04,0.123,0.049
	c-0.019-0.066,0.277,0.23,0.427,0.358l0.25,0.226c0.272,0.247,0.545,0.53,0.763,0.893c1.008,1.509,1.23,4.092,0.591,6.008
	c-0.677,2.131-2.339,4.063-4.359,5.475c-0.981,0.716-2.171,1.281-3.134,1.724c-0.231,0.12-0.645,0.24-0.953,0.354
	c-0.154,0.08-0.526,0.178-0.781,0.268c-0.563,0.163-1.126,0.3-1.684,0.415c-2.23,0.416-4.355,0.531-6.126,0.469
	c-1.763-0.098-3.215-0.213-4.187-0.363c-0.99-0.146-1.517-0.221-1.517-0.221s0.399,0.344,1.226,0.911
	c0.836,0.548,2.066,1.407,3.828,2.189c1.757,0.777,4.014,1.672,6.852,2.013c0.709,0.089,1.453,0.15,2.226,0.186
	c0.413,0,0.718,0.026,1.243,0c0.373-0.009,0.654,0.013,1.117-0.032c1.808-0.145,3.47-0.504,5.295-1.109
	c3.537-1.238,7.401-3.68,9.949-7.812c2.547-4.271,3.446-9.685,1.303-15.17c-0.54-1.349-1.271-2.696-2.271-3.909l-0.182-0.229
	l-0.091-0.114l-0.045-0.059C621.611,840.087,621.848,840.33,621.484,839.949z M612.553,848.198l0.046,0.048
	c0.004,0,0.009,0.014,0.018,0.019C612.59,848.238,612.566,848.211,612.553,848.198z"/>
<path d="M683.361,857.146c-2.975,0-5.386,2.348-5.386,5.245c0,2.901,2.411,5.246,5.386,5.246c2.979,0,5.386-2.345,5.386-5.246
	C688.747,859.493,686.34,857.146,683.361,857.146z"/>
<path d="M755.187,806.965c0-2.902-2.411-5.246-5.386-5.246c-2.979,0-5.385,2.344-5.385,5.246c0,2.896,2.406,5.244,5.385,5.244
	C752.775,812.209,755.187,809.861,755.187,806.965z"/>
<path d="M644.084,806.965c0,2.953,2.461,5.352,5.498,5.352c3.038,0,5.499-2.398,5.499-5.352c0-2.959-2.461-5.361-5.499-5.361
	C646.545,801.604,644.084,804.006,644.084,806.965z"/>
<path d="M797.602,565.508c44.877,14.374,49.082,33.061,49.082,33.061c0.616,19.96,32.765,32.025,24.464,5.117
	C862.212,574.726,797.602,565.508,797.602,565.508z"/>
<path d="M795.962,752.977c-2.679,13.196-4.177,30.503-16.438,48.742c0,0,35.963-33.719,37.253-50.406
	C818.076,734.63,798.633,739.773,795.962,752.977z"/>
<path d="M859.524,631.774c-2.108-4.888-4.614-9.257-7.334-13.313c-2.674-3.959-5.431-7.7-8.214-11.159
	c-5.494-6.979-11.221-12.8-16.478-17.713c-5.272-4.913-10.231-8.771-14.391-11.822c-4.128-3.078-7.619-5.166-9.944-6.643
	c-2.361-1.415-3.623-2.168-3.623-2.168s1.126,0.93,3.242,2.681c2.079,1.778,5.081,4.423,8.772,7.908
	c3.683,3.485,7.955,7.898,12.587,13.136c4.577,5.289,9.437,11.486,14.186,18.558c2.388,3.533,4.704,7.293,6.942,11.296
	c2.14,3.928,4.292,8.066,5.816,12.401c0.712,2.017,1.308,4.087,1.762,6.17c3.424,17.687-8.164,25.02-14.694,27.691
	c-16.137,5.842-40.308,7.085-55.088-16.161c0,0-9.653,8.748,2.916,18.146c0,0,8.69,6.67,21.26,6.78c0,0-8.056,2.95-21.914-3.485
	c-0.019,2.494,1.008,5.918,5.821,8.51c0,0,12.277,5.793,19.685,5.904c0,0-5.881,1.384-20.393-2.733
	c0.213,1.765,1.48,4.002,5.639,6.01c0,0,3.787,2.473,10.163,3.008c-1.948,0.628-3.905,1.238-5.885,1.813
	c-11.075,3.344-22.641,6.271-33.92,10.579c-11.07,4.192-22.694,10.314-30.114,20.663c-1.835,2.636-3.287,5.276-4.395,8.483
	c-0.373,0.981-0.932,3.22-1.1,4.82c-0.209,1.646-0.199,3.291-0.05,4.909c0.622,6.484,3.914,12.317,8.618,16.289
	c2.356,1.991,5.072,3.508,7.928,4.48l2.166,0.598l0.273,0.075l0.372,0.079l0.454,0.08l0.898,0.158
	c0.686,0.098,1.503,0.199,2.229,0.267c0.718,0.025,1.422,0.083,2.139,0.062c2.847-0.036,5.667-0.558,8.219-1.486
	c2.557-0.946,4.832-2.265,6.812-3.742c3.991-3.033,6.721-6.492,9.208-9.632c2.462-3.194,4.649-6.184,6.871-8.811
	c2.22-2.627,4.444-4.847,6.788-6.669c2.242-1.689,4.709-3.025,7.002-3.84c4.632-1.653,8.736-1.649,11.328-0.897
	c0.663,0.155,1.231,0.345,1.708,0.553c0.495,0.173,0.895,0.35,1.199,0.53c0.631,0.327,0.957,0.5,0.957,0.5
	s-4.444-9.638-23.747-8.982c-19.304,0.654-27.608,8.982-27.608,8.982s18.063,13.688-1.839,24.595
	c-2.139,0.721-4.386,1.084-6.698,0.89c-0.476-0.019-0.962-0.119-1.443-0.163l-1.349-0.244l-0.885-0.217l-0.44-0.106l-0.114-0.026
	c-0.067-0.014,0.195,0.04,0.045,0l-0.167-0.058l-1.349-0.464c-1.744-0.734-3.365-1.791-4.75-3.131
	c-2.765-2.654-4.576-6.493-4.654-10.386c-0.186-3.865,1.403-7.637,4.219-11.356c2.761-3.627,6.602-6.754,11.011-9.359
	c2.185-1.309,4.596-2.485,6.93-3.582c2.497-1.15,4.976-2.137,7.597-3.114c10.398-3.865,21.76-6.55,33.22-9.959
	c11.466-3.529,23.163-7.775,33.602-14.6c10.48-6.719,19.058-16.52,23.411-27.833c2.181-5.644,3.188-11.765,2.726-17.62
	C863.261,642.049,861.595,636.644,859.524,631.774z"/>
<path d="M814.461,637.511c0.591-1.919,1.177-3.839,1.762-5.745l0.454-1.579l0.164-0.61l0.077-0.367l0.158-0.738
	c0.201-1.035,0.433-1.85,0.609-3.052c0.168-1.159,0.336-2.309,0.509-3.459c0.063-1.097,0.136-2.185,0.2-3.272
	c0.045-2.163,0.095-4.299-0.142-6.387c-0.313-4.171-1.131-8.133-2.293-11.747c-1.117-3.617-2.597-6.891-4.205-9.743
	c-1.593-2.861-3.333-5.312-5.031-7.328c-1.68-2.035-3.323-3.645-4.745-4.874c-1.353-1.282-2.602-2.105-3.41-2.689
	c-0.817-0.566-1.253-0.866-1.253-0.866s0.232,0.473,0.672,1.357c0.464,0.849,1.081,2.137,1.835,3.746
	c0.781,1.583,1.553,3.587,2.379,5.829c0.4,1.141,0.854,2.309,1.199,3.604c0.409,1.261,0.771,2.597,1.09,3.998
	c0.686,2.782,1.248,5.808,1.553,9.005c0.363,3.18,0.454,6.536,0.268,9.946c-0.063,1.707-0.268,3.433-0.468,5.157
	c-0.141,0.858-0.281,1.721-0.417,2.587l-0.5,2.411c-0.137,0.761-0.5,1.871-0.735,2.795l-0.199,0.726l-0.101,0.367
	c0.019-0.08-0.063,0.238,0.045-0.163l-0.018,0.039l-0.022,0.08l-0.05,0.163l-0.409,1.318c-0.636,1.946-1.271,3.892-1.907,5.842
	c-0.599,2.109-1.189,4.463-1.476,6.887c-0.34,2.653-0.231,5.268,0.305,7.952c0.518,2.671,1.634,5.404,3.451,7.828l0.717,0.894
	c0.272,0.31,0.612,0.663,0.926,0.982c0.382,0.397,0.459,0.425,0.673,0.619l0.281,0.242c0.391,0.35,0.141,0.119,0.245,0.217
	l0.055,0.045l0.118,0.088l0.236,0.177c1.244,0.969,2.628,1.686,4.014,2.212c5.631,2.088,11.188,1.212,15.575-1.27
	c4.24-2.481,6.748-6.249,8.018-9.69c0.624-1.777,0.99-3.396,1.141-5.157c0.046-0.451,0.023-0.725,0.031-1.088
	c0.028-0.513,0-0.813,0-1.211c-0.036-0.757-0.1-1.478-0.189-2.168c-0.351-2.769-1.268-4.967-2.063-6.678
	c-0.809-1.712-1.689-2.91-2.252-3.724c-0.581-0.806-0.935-1.199-0.935-1.199s0.077,0.518,0.226,1.481
	c0.155,0.946,0.273,2.361,0.373,4.078c0.064,1.726-0.056,3.794-0.48,5.966c-0.118,0.544-0.259,1.093-0.428,1.642
	c-0.092,0.248-0.191,0.609-0.273,0.76c-0.117,0.302-0.24,0.703-0.363,0.925c-0.453,0.941-1.034,2.101-1.771,3.056
	c-1.448,1.969-3.432,3.583-5.621,4.246c-1.962,0.619-4.618,0.407-6.166-0.574c-0.372-0.212-0.663-0.478-0.917-0.744l-0.231-0.246
	c-0.132-0.143-0.437-0.43-0.369-0.412c-0.009-0.049-0.009-0.058-0.05-0.124l-0.172-0.287c-0.432-0.805-0.785-1.849-0.958-3.105
	c-0.182-1.238-0.1-2.684,0.082-4.024C813.499,640.872,813.921,639.288,814.461,637.511z M814.925,650.606l-0.051-0.044
	c0.02,0.013,0.041,0.04,0.073,0.066C814.942,650.619,814.93,650.61,814.925,650.606z"/>
<path d="M829.446,714.29c-2.974,0-5.386,2.348-5.386,5.245c0,2.901,2.412,5.245,5.386,5.245c2.979,0,5.385-2.344,5.385-5.245
	C834.831,716.638,832.425,714.29,829.446,714.29z"/>
<path d="M772.541,778.999c-2.979,0-5.385,2.349-5.385,5.25c0,2.893,2.406,5.245,5.385,5.245c2.975,0,5.386-2.353,5.386-5.245
	C777.927,781.348,775.516,778.999,772.541,778.999z"/>
<path d="M767.038,686.634c0,2.959,2.466,5.356,5.503,5.356c3.034,0,5.499-2.397,5.499-5.356c0-2.958-2.465-5.355-5.499-5.355
	C769.504,681.278,767.038,683.676,767.038,686.634z"/>
<g>
	<g>
		<text transform="matrix(1.0267 0 0 1 354.8975 571.3525)" font-family="'PlayfairDisplaySC-Regular'" font-size="239.1377">S</text>
		<text transform="matrix(1.0267 0 0 1 480.0034 700.7012)" font-family="'PlayfairDisplaySC-Regular'" font-size="239.1377">M</text>
	</g>
</g>
</svg>
